<svg width="126" height="32" viewBox="0 0 126 32" fill="none" xmlns="http://www.w3.org/2000/svg">
<g id="Logo">
<g id="RobsonSouza">
<path d="M1.24075 24.8846C1.00665 24.8846 0.74133 24.7154 0.444798 24.3769C0.148266 24.0385 0 23.7 0 23.3615C0 23.0077 0.429191 21.3385 1.28757 18.3538C2.14596 15.3692 2.63757 13.1 2.76243 11.5462C2.55954 11.4231 2.38006 11.2308 2.22399 10.9692C2.06792 10.7077 1.98989 10.4769 1.98989 10.2769C1.98989 9.92308 2.52052 9.56154 3.58179 9.19231C4.64307 8.80769 5.81359 8.61538 7.09336 8.61538C8.38873 8.61538 9.50463 8.92308 10.441 9.53846C11.3931 10.1385 11.8691 10.9923 11.8691 12.1C11.8691 12.8538 11.6506 13.5615 11.2136 14.2231C10.7922 14.8692 10.2694 15.4 9.64509 15.8154C9.03642 16.2308 8.42775 16.6 7.81908 16.9231C7.21041 17.2462 6.68758 17.5154 6.25058 17.7308C5.82919 17.9308 5.6185 18.0769 5.6185 18.1692C5.6185 18.5077 5.88382 18.9462 6.41445 19.4846C6.9607 20.0231 7.34307 20.3923 7.56157 20.5923C7.78006 20.7923 8.06879 21.0615 8.42775 21.4C8.78671 21.7231 9.12226 22.0154 9.4344 22.2769C9.76214 22.5385 10.0197 22.7538 10.2069 22.9231C10.4098 23.0923 10.6127 23.2692 10.8156 23.4538C11.2058 23.8077 11.4009 24.0923 11.4009 24.3077C11.4009 24.6769 11.1434 24.8615 10.6283 24.8615C9.69191 24.8615 8.35752 24.0615 6.62515 22.4615C4.89278 20.8462 3.83151 19.4769 3.44133 18.3538C2.70781 20.7538 2.28642 22.1462 2.17717 22.5308C2.06792 22.9 1.94306 23.2846 1.8026 23.6846C1.55289 24.4846 1.36561 24.8846 1.24075 24.8846ZM4.77573 12.1692C4.77573 13.1692 4.44798 14.8231 3.79249 17.1308C4.05781 16.9308 4.56503 16.6385 5.31417 16.2538C6.0633 15.8538 6.7344 15.4923 7.32746 15.1692C7.93613 14.8308 8.49018 14.3846 8.9896 13.8308C9.48902 13.2769 9.73873 12.7 9.73873 12.1C9.73873 11.1462 8.89596 10.6692 7.21041 10.6692C6.44567 10.6692 5.55607 10.8615 4.54162 11.2462C4.69769 11.5846 4.77573 11.8923 4.77573 12.1692Z" fill="#F5F6F6"/>
<path d="M20.3667 17.3846C20.3667 16.8615 20.2809 16.3692 20.1092 15.9077C19.9375 15.4308 19.6878 15.0846 19.3601 14.8692C18.2832 15.1615 17.3546 15.9846 16.5742 17.3385C15.8095 18.6769 15.4271 19.9385 15.4271 21.1231C15.4271 22.3077 15.7236 23.0462 16.3167 23.3385C17.4404 23.1231 18.3924 22.3692 19.1728 21.0769C19.9687 19.7692 20.3667 18.5385 20.3667 17.3846ZM14.2098 17.5923C14.756 16.3923 15.4661 15.4077 16.3401 14.6385C17.2297 13.8538 18.1349 13.4615 19.0557 13.4615C19.9921 13.4615 20.7725 13.8538 21.3968 14.6385C22.021 15.4077 22.3332 16.3538 22.3332 17.4769C22.3332 18.5846 22.0601 19.7231 21.5138 20.8923C20.9676 22.0462 20.2106 23.0077 19.243 23.7769C18.291 24.5308 17.2765 24.9077 16.1996 24.9077C15.4037 24.9077 14.7404 24.5462 14.2098 23.8231C13.6791 23.1 13.4138 22.1846 13.4138 21.0769C13.4138 19.9538 13.6791 18.7923 14.2098 17.5923Z" fill="#F5F6F6"/>
<path d="M24.9112 24.9077C24.6927 24.9077 24.4352 24.7462 24.1387 24.4231C23.8422 24.0846 23.6939 23.7692 23.6939 23.4769C23.6939 23.1846 23.9358 22.1846 24.4196 20.4769C24.919 18.7692 25.4107 16.7154 25.8945 14.3154C26.3939 11.9 26.6436 9.69231 26.6436 7.69231C26.6436 7.23077 26.8153 7 27.1586 7C27.4084 7 27.7127 7.23077 28.0717 7.69231C28.4306 8.13846 28.6101 8.57692 28.6101 9.00769C28.6101 10.9 28.1887 13.6 27.3459 17.1077C29.2032 14.6308 30.8887 13.3923 32.4026 13.3923C33.1361 13.3923 33.7526 13.7462 34.252 14.4538C34.767 15.1615 35.0245 16.0077 35.0245 16.9923C35.0245 17.9615 34.7358 19.0769 34.1584 20.3385C33.5965 21.6 32.8318 22.6846 31.8641 23.5923C30.8965 24.4846 29.8821 24.9308 28.8208 24.9308C27.7595 24.9308 26.7138 24.4 25.6838 23.3385L25.6604 23.3615C25.317 24.3923 25.0673 24.9077 24.9112 24.9077ZM28.6335 23.1308C29.648 23.1308 30.639 22.4538 31.6066 21.1C32.5899 19.7308 33.0815 18.2923 33.0815 16.7846C33.0815 15.8769 32.8006 15.4231 32.2387 15.4231C31.3335 15.4231 30.3191 16.0462 29.1954 17.2923C28.0873 18.5385 27.1274 20.0231 26.3159 21.7462C27.0494 22.6692 27.8219 23.1308 28.6335 23.1308Z" fill="#F5F6F6"/>
<path d="M42.8996 13.4615C43.4302 13.4615 43.9296 13.7538 44.3979 14.3385C44.8661 14.9077 45.1002 15.4077 45.1002 15.8385C45.1002 16.1 44.9753 16.2308 44.7256 16.2308C44.5539 16.2308 44.2886 16.1 43.9296 15.8385C43.5707 15.5615 43.2039 15.4231 42.8294 15.4231C42.4548 15.4231 41.8617 15.6385 41.0502 16.0692C40.2542 16.5 39.8562 16.9538 39.8562 17.4308C39.8562 17.7846 40.5742 18.3923 42.01 19.2538C42.5562 19.5923 43.0479 20.0308 43.4849 20.5692C43.9375 21.0923 44.1638 21.6615 44.1638 22.2769C44.1638 22.8769 43.7346 23.4692 42.8762 24.0538C42.0334 24.6231 41.0424 24.9077 39.9031 24.9077C38.7794 24.9077 37.7805 24.6385 36.9065 24.1C36.0481 23.5615 35.619 23.0538 35.619 22.5769C35.619 22.3769 35.6658 22.2231 35.7594 22.1154C35.8687 21.9923 36.0013 21.9308 36.1574 21.9308C36.3135 21.9308 36.532 22.0308 36.8129 22.2308C37.6557 22.8308 38.5296 23.1308 39.4348 23.1308C40.3557 23.1308 41.019 23.0308 41.4247 22.8308C41.8305 22.6154 42.0334 22.3385 42.0334 22C42.0334 21.6462 41.8071 21.2769 41.3545 20.8923C40.9019 20.4923 40.4025 20.1385 39.8562 19.8308C39.3256 19.5231 38.834 19.1462 38.3814 18.7C37.9288 18.2538 37.7025 17.8 37.7025 17.3385C37.7025 16.5231 38.3502 15.6769 39.6455 14.8C40.9565 13.9077 42.0412 13.4615 42.8996 13.4615Z" fill="#F5F6F6"/>
<path d="M53.2419 17.3846C53.2419 16.8615 53.156 16.3692 52.9844 15.9077C52.8127 15.4308 52.563 15.0846 52.2352 14.8692C51.1583 15.1615 50.2297 15.9846 49.4494 17.3385C48.6846 18.6769 48.3023 19.9385 48.3023 21.1231C48.3023 22.3077 48.5988 23.0462 49.1919 23.3385C50.3156 23.1231 51.2676 22.3692 52.0479 21.0769C52.8439 19.7692 53.2419 18.5385 53.2419 17.3846ZM47.0849 17.5923C47.6312 16.3923 48.3413 15.4077 49.2153 14.6385C50.1049 13.8538 51.0101 13.4615 51.9309 13.4615C52.8673 13.4615 53.6477 13.8538 54.2719 14.6385C54.8962 15.4077 55.2084 16.3538 55.2084 17.4769C55.2084 18.5846 54.9352 19.7231 54.389 20.8923C53.8427 22.0462 53.0858 23.0077 52.1182 23.7769C51.1662 24.5308 50.1517 24.9077 49.0748 24.9077C48.2789 24.9077 47.6156 24.5462 47.0849 23.8231C46.5543 23.1 46.289 22.1846 46.289 21.0769C46.289 19.9538 46.5543 18.7923 47.0849 17.5923Z" fill="#F5F6F6"/>
<path d="M59.074 20.8923C60.5723 18.3846 61.7896 16.5231 62.726 15.3077C63.678 14.0769 64.4506 13.4615 65.0437 13.4615C65.6523 13.4615 66.222 13.7769 66.7526 14.4077C67.2989 15.0385 67.572 15.7077 67.572 16.4154C67.572 17.5231 67.3145 18.8769 66.7994 20.4769C65.863 23.4308 65.0202 24.9077 64.2711 24.9077C63.9278 24.9077 63.7561 24.6769 63.7561 24.2154C63.7561 23.8923 63.92 23.2385 64.2477 22.2538C64.5911 21.2538 64.9032 20.2769 65.1841 19.3231C65.4806 18.3538 65.6289 17.6308 65.6289 17.1538C65.6289 16.6615 65.5509 16.3 65.3948 16.0692C65.2543 15.8385 65.1061 15.7231 64.95 15.7231C64.8095 15.7231 64.6613 15.7692 64.5052 15.8615C64.3491 15.9538 64.1697 16.1077 63.9668 16.3231C63.7795 16.5385 63.6 16.7538 63.4283 16.9692C63.2567 17.1692 63.0382 17.4615 62.7728 17.8462C62.5231 18.2308 62.3124 18.5615 62.1408 18.8385C61.9691 19.1 61.7194 19.4846 61.3916 19.9923C61.0639 20.5 60.8142 20.8846 60.6425 21.1462C60.4708 21.4077 60.2445 21.7615 59.9636 22.2077C59.6827 22.6538 59.4564 23 59.2847 23.2462C59.1286 23.4923 58.9491 23.7615 58.7463 24.0538C58.3561 24.6231 58.0439 24.9077 57.8098 24.9077C57.5913 24.9077 57.3338 24.7385 57.0373 24.4C56.7408 24.0462 56.5925 23.7385 56.5925 23.4769C56.5925 23.4 56.6471 23.1923 56.7564 22.8538C57.0529 21.9615 57.3806 20.8615 57.7396 19.5538C58.0986 18.2308 58.2936 16.7308 58.3249 15.0538C58.3717 13.9308 58.5356 13.3692 58.8165 13.3692C59.1598 13.3692 59.5032 13.5462 59.8465 13.9C60.1899 14.2538 60.3616 14.6462 60.3616 15.0769C60.3616 15.4923 60.2289 16.3077 59.9636 17.5231C59.7139 18.7231 59.4173 19.8462 59.074 20.8923Z" fill="#F5F6F6"/>
<path d="M80.2184 20.1769C80.2184 21.4846 79.5863 22.6077 78.3221 23.5462C77.0579 24.4846 75.6143 24.9538 73.9912 24.9538C72.3681 24.9538 71.0571 24.5615 70.0582 23.7769C69.075 22.9769 68.5834 22.1538 68.5834 21.3077C68.5834 20.4615 68.8253 20.0385 69.3091 20.0385C69.6837 20.0385 70.0738 20.2231 70.4796 20.5923C70.8854 20.9615 71.338 21.3308 71.8374 21.7C72.3525 22.0692 72.9299 22.2538 73.5698 22.2538C74.2097 22.2538 74.9354 21.9923 75.747 21.4692C76.5585 20.9462 76.9643 20.5077 76.9643 20.1538C76.9643 19.8 76.5195 19.2077 75.6299 18.3769C74.7559 17.5462 73.8741 16.6923 72.9845 15.8154C72.1106 14.9231 71.6736 14.2385 71.6736 13.7615C71.6736 13.2692 71.7594 12.7385 71.9311 12.1692C72.1184 11.6 72.3447 11.2077 72.61 10.9923C73.4527 10.1769 74.5374 9.47692 75.864 8.89231C77.2062 8.29231 78.3845 7.99231 79.399 7.99231C79.9921 7.99231 80.4837 8.24615 80.8738 8.75385C81.264 9.24615 81.4591 9.76154 81.4591 10.3C81.4591 10.5154 81.2796 10.6923 80.9207 10.8308C80.5773 10.9538 80.0701 11.0846 79.399 11.2231C78.7435 11.3615 78.0724 11.5615 77.3857 11.8231C75.7938 12.4077 74.9978 12.9 74.9978 13.3C74.9978 13.4846 75.271 13.8231 75.8172 14.3154C76.3634 14.7923 76.9565 15.3 77.5964 15.8385C78.2519 16.3615 78.8528 17.0308 79.399 17.8462C79.9452 18.6462 80.2184 19.4231 80.2184 20.1769Z" fill="#F5F6F6"/>
<path d="M85.3396 22.6231C86.1823 22.2538 86.9159 21.5077 87.5402 20.3846C88.1644 19.2615 88.4766 18.2077 88.4766 17.2231C88.4766 16.2385 88.3361 15.5615 88.0552 15.1923C87.3841 15.5769 86.713 16.3846 86.0419 17.6154C85.3864 18.8462 85.0586 19.9308 85.0586 20.8692C85.0586 21.7923 85.1523 22.3769 85.3396 22.6231ZM81.9216 21.1C81.9216 19.1769 82.5225 17.3538 83.7243 15.6308C84.9416 13.9077 86.1433 13.0462 87.3295 13.0462C88.5156 13.0462 89.5144 13.4615 90.326 14.2923C91.1375 15.1077 91.5433 16.1 91.5433 17.2692C91.5433 18.4231 91.2624 19.6 90.7006 20.8C90.1387 22 89.3506 23 88.3361 23.8C87.3217 24.5846 86.237 24.9769 85.0821 24.9769C84.2237 24.9769 83.4823 24.6 82.8581 23.8462C82.2338 23.0923 81.9216 22.1769 81.9216 21.1Z" fill="#F5F6F6"/>
<path d="M100.932 13.6462C101.057 13.2615 101.307 13.0692 101.681 13.0692C102.056 13.0692 102.485 13.3846 102.969 14.0154C103.468 14.6462 103.718 15.1923 103.718 15.6538C103.718 15.8231 103.359 16.9538 102.641 19.0462C101.923 21.1385 101.369 22.7923 100.979 24.0077C100.761 24.6538 100.394 24.9769 99.8787 24.9769C99.5666 24.9769 99.3013 24.8692 99.0828 24.6538C98.8799 24.4231 98.7784 24.0692 98.7784 23.5923C98.7784 23.1154 98.8721 22.4385 99.0594 21.5615C97.4518 23.8385 96.1721 24.9769 95.22 24.9769C94.7206 24.9769 94.1198 24.6615 93.4174 24.0308C92.7151 23.3846 92.364 22.7615 92.364 22.1615C92.364 20.6846 92.7854 18.8 93.6281 16.5077C94.4865 14.2154 95.2903 13.0692 96.0394 13.0692C96.492 13.0692 96.89 13.2692 97.2333 13.6692C97.5923 14.0692 97.7718 14.5077 97.7718 14.9846C97.7718 15.1692 97.5767 15.6846 97.1865 16.5308C96.0004 19.0692 95.4073 20.8615 95.4073 21.9077C95.4073 22 95.4463 22.0462 95.5244 22.0462C95.7585 22.0462 96.1955 21.6846 96.8354 20.9615C97.4909 20.2231 98.2166 19.1769 99.0125 17.8231C99.8241 16.4538 100.464 15.0615 100.932 13.6462Z" fill="#F5F6F6"/>
<path d="M107.565 22.0462L112.668 21.8615C112.996 21.8615 113.285 21.9385 113.535 22.0923C113.784 22.2308 113.909 22.4462 113.909 22.7385C113.909 23.4615 113.215 24.0231 111.826 24.4231C110.437 24.8077 108.712 25 106.652 25C105.903 25 105.193 24.6692 104.522 24.0077C103.851 23.3462 103.515 22.8077 103.515 22.3923C103.515 21.9615 103.913 21.4231 104.709 20.7769C105.505 20.1308 106.371 19.5385 107.308 19C108.26 18.4462 109.134 17.9231 109.929 17.4308C110.725 16.9231 111.123 16.5846 111.123 16.4154C111.123 16.2462 110.702 16.1615 109.859 16.1615C109.016 16.1615 108.33 16.2077 107.799 16.3C107.268 16.3923 106.839 16.4385 106.512 16.4385C106.184 16.4385 105.809 16.1769 105.388 15.6538C104.966 15.1154 104.756 14.6923 104.756 14.3846C104.756 13.9538 105.146 13.6308 105.926 13.4154C106.722 13.1846 107.604 13.0692 108.572 13.0692C109.539 13.0692 110.593 13.2 111.732 13.4615C112.247 13.6 112.739 13.9923 113.207 14.6385C113.691 15.2846 113.933 15.7846 113.933 16.1385C113.933 16.7846 113.589 17.4692 112.903 18.1923C112.231 18.9 111.49 19.4923 110.679 19.9692C109.867 20.4462 109.118 20.8846 108.431 21.2846C107.76 21.6692 107.425 21.9 107.425 21.9769C107.425 22.0231 107.471 22.0462 107.565 22.0462Z" fill="#F5F6F6"/>
<path d="M125.298 18.4231C125.579 18.6692 125.719 18.8923 125.719 19.0923C125.719 19.2923 125.625 19.7077 125.438 20.3385C125.251 20.9692 125.126 21.4615 125.064 21.8154C125.001 22.1538 124.947 22.4231 124.9 22.6231C124.868 22.8231 124.845 22.9846 124.829 23.1077C124.814 23.2154 124.783 23.3538 124.736 23.5231C124.705 23.6923 124.673 23.8308 124.642 23.9385C124.627 24.0308 124.595 24.1462 124.549 24.2846C124.517 24.4077 124.478 24.5077 124.431 24.5846C124.385 24.6462 124.33 24.7154 124.268 24.7923C124.174 24.9154 124.018 24.9769 123.799 24.9769C123.581 24.9769 123.308 24.7615 122.98 24.3308C122.668 23.9 122.434 23.3769 122.278 22.7615C120.811 24.2385 119.578 24.9769 118.579 24.9769C117.908 24.9769 117.182 24.6154 116.402 23.8923C115.621 23.1538 115.231 22.4231 115.231 21.7C115.231 20.9615 115.567 19.9154 116.238 18.5615C116.909 17.2077 117.822 15.9538 118.977 14.8C120.147 13.6462 121.302 13.0692 122.442 13.0692C123.097 13.0692 123.854 13.4462 124.712 14.2C125.571 14.9538 126 15.6462 126 16.2769C126 16.8923 125.766 17.6077 125.298 18.4231ZM118.485 22.0692C119.11 22.0692 119.937 21.6538 120.967 20.8231C122.012 19.9769 122.66 18.9154 122.91 17.6385C122.925 17.4538 123.058 17.3462 123.308 17.3154C123.261 16.4385 123.113 16 122.863 16C122.239 16 121.536 16.4 120.756 17.2C119.991 18 119.359 18.8538 118.86 19.7615C118.376 20.6692 118.134 21.3385 118.134 21.7692C118.134 21.8923 118.15 21.9769 118.181 22.0231C118.228 22.0538 118.329 22.0692 118.485 22.0692Z" fill="#F5F6F6"/>
</g>
</g>
</svg>
